<?xml version="1.0" encoding="UTF-8" standalone="no"?>
<svg
   xmlns:dc="http://purl.org/dc/elements/1.1/"
   xmlns:cc="http://creativecommons.org/ns#"
   xmlns:rdf="http://www.w3.org/1999/02/22-rdf-syntax-ns#"
   xmlns:svg="http://www.w3.org/2000/svg"
   xmlns="http://www.w3.org/2000/svg"
   xmlns:sodipodi="http://sodipodi.sourceforge.net/DTD/sodipodi-0.dtd"
   xmlns:inkscape="http://www.inkscape.org/namespaces/inkscape"
   version="1.1"
   id="Layer_1"
   x="0px"
   y="0px"
   viewBox="0 0 384 323"
   xml:space="preserve"
   sodipodi:docname="delivery.svg"
   width="384"
   height="323"
   inkscape:version="1.0.1 (3bc2e813f5, 2020-09-07)"
   inkscape:export-filename="C:\Users\user\Documents\Software\react\restaurant\src\img\delivery.png"
   inkscape:export-xdpi="750"
   inkscape:export-ydpi="750"><metadata
   id="metadata3336"><rdf:RDF><cc:Work
       rdf:about=""><dc:format>image/svg+xml</dc:format><dc:type
         rdf:resource="http://purl.org/dc/dcmitype/StillImage" /><dc:title></dc:title></cc:Work></rdf:RDF></metadata><defs
   id="defs3334" /><sodipodi:namedview
   pagecolor="#ffffff"
   bordercolor="#666666"
   borderopacity="1"
   objecttolerance="10"
   gridtolerance="10"
   guidetolerance="10"
   inkscape:pageopacity="0"
   inkscape:pageshadow="2"
   inkscape:window-width="1366"
   inkscape:window-height="705"
   id="namedview3332"
   showgrid="false"
   width="384px"
   inkscape:zoom="1.5944272"
   inkscape:cx="192"
   inkscape:cy="161.5"
   inkscape:window-x="-8"
   inkscape:window-y="-8"
   inkscape:window-maximized="1"
   inkscape:current-layer="g2266" />
<style
   type="text/css"
   id="style2">
	.st0{fill:#FFFFFF;}
	.st1{fill:#0A2138;}
	.st2{fill:#05101C;}
	.st3{fill:#ED1C24;}
	.st4{fill:#F7C378;}
	.st5{fill:#FDDDBA;}
	.st6{fill:#2E384C;}
	.st7{fill:#FFAE4D;}
	.st8{fill:#F2911D;}
	.st9{fill:#FF9C1A;}
	.st10{fill:#EF4351;}
	.st11{fill:#FCCA9B;}
	.st12{fill:#86C43D;}
	.st13{fill:#FFD0B0;}
	.st14{fill:#7FC7FD;}
	.st15{fill:#1155FA;}
	.st16{fill:#80AAFF;}
	.st17{fill:#3097FE;}
	.st18{fill:#B0DCFE;}
	.st19{fill:#F9F9F9;}
	.st20{fill:#DEF2FF;}
	.st21{fill:#75AA30;}
	.st22{fill:#E01221;}
	.st23{fill:#FFB03E;}
	.st24{fill:#FFF2DE;}
	.st25{fill:#EBEBED;}
	.st26{fill:#C2C2C2;}
	.st27{fill:#FF673E;}
	.st28{enable-background:new    ;}
	.st29{fill:#B97C2A;}
	.st30{fill:#FFCE80;}
	.st31{fill:#D10922;}
	.st32{fill:#F9BC64;}
	.st33{fill:#454545;}
	.st34{fill:#EAA563;}
	.st35{fill:#082238;}
	.st36{fill:#442332;}
	.st37{fill:#003E99;}
	.st38{fill:#0049BF;}
	.st39{fill:#414E68;}
	.st40{fill:#C6956A;}
	.st41{clip-path:url(#SVGID_00000098927391632173839380000003091010726998808963_);}
	.st42{fill:#FFDAA4;}
	.st43{fill:#D3AB8D;}
	.st44{fill:#F2A416;}
	.st45{fill:#FFCF83;}
	.st46{fill:#FFD79C;}
	.st47{fill:#FFB9A9;}
	.st48{fill:#EECA93;}
	.st49{fill:#1D283E;}
	.st50{fill:#B57341;}
	.st51{fill:#0B2137;}
	.st52{fill:#0C141E;}
	.st53{fill:#182933;}
	.st54{fill:#EDE807;}
	.st55{fill:#A0BBFD;}
	.st56{fill:#BCBCCC;}
	.st57{fill:#C7C7D8;}
	.st58{fill:#D7D7E2;}
	.st59{fill:#4177FA;}
	.st60{fill:#4177FB;}
	.st61{fill:#CFDDFE;}
	.st62{fill:#628EFB;}
	.st63{fill:#FCFDFA;}
	.st64{fill:#C6C369;}
	.st65{fill:#A4BAFF;}
	.st66{fill:#F8B83C;}
	.st67{fill:#7099FC;}
	.st68{fill:#FACD77;}
	.st69{fill:#FAF711;}
	.st70{fill:#859115;}
	.st71{fill:#A8B71A;}
	.st72{fill:#697A00;}
	.st73{fill:#7E9300;}
	.st74{fill:#737F00;}
	.st75{fill:#586100;}
	.st76{fill:#B8C438;}
	.st77{fill:#D9E842;}
	.st78{fill:#285C00;}
	.st79{fill:#447A14;}
	.st80{fill:#4F8E17;}
	.st81{fill:#367C00;}
	.st82{opacity:0.58;}
	.st83{fill:#7F2400;}
	.st84{fill:#F76375;}
	.st85{fill:#FFACA1;}
	.st86{fill:#89B426;}
	.st87{fill:#6D9F1C;}
	.st88{fill:#BADB2C;}
	.st89{fill:#91C422;}
	.st90{fill:#CBEA68;}
	.st91{fill:#9BC33E;}
	.st92{fill:#81AA1E;}
	.st93{fill:#6E9E16;}
	.st94{fill:#97C956;}
	.st95{fill:#F2F4CD;}
	.st96{fill:#CBE783;}
	.st97{fill:#E9EAC2;}
	.st98{fill:#B4E140;}
	.st99{fill:#A1CD2E;}
	.st100{fill:#AAD12F;}
	.st101{fill:#FFB864;}
	.st102{fill:#FFD8AE;}
</style>

<g
   id="g3329"
   transform="matrix(41.707223,0,0,32.997016,-10062.814,-8378.9597)">
	
	
	<g
   id="g2266"
   transform="matrix(0.10983439,0,0,0.13209016,208.11816,219.4516)">
		
		
		
		<g
   id="g2264"
   transform="matrix(1.0154312,0,0,0.98244897,-42.401914,17.762108)">
			<g
   id="g2000">
				<g
   id="g1882">
					<g
   id="g1838">
						<g
   id="g1836">
							<rect
   x="388.03"
   y="256.54001"
   class="st59"
   width="8.79"
   height="4.8299999"
   id="rect1834"
   style="fill:#ffaaaa" />
						</g>
					</g>
					<g
   id="g1844">
						<g
   id="g1842">
							<rect
   x="385.57999"
   y="251.66"
   class="st60"
   width="2.02"
   height="5.6199999"
   id="rect1840"
   style="fill:#ff8080" />
						</g>
					</g>
					<g
   id="g1850">
						<g
   id="g1848">
							<rect
   x="387.60001"
   y="251.66"
   class="st0"
   width="2.02"
   height="5.6199999"
   id="rect1846" />
						</g>
					</g>
					<g
   id="g1856">
						<g
   id="g1854">
							<rect
   x="389.63"
   y="251.66"
   class="st55"
   width="2.03"
   height="5.6199999"
   id="rect1852"
   style="fill:#ffd5d5" />
						</g>
					</g>
					<g
   id="g1862">
						<g
   id="g1860">
							<rect
   x="391.64999"
   y="251.66"
   class="st61"
   width="2.02"
   height="5.6199999"
   id="rect1858"
   style="fill:#ffaaaa" />
						</g>
					</g>
					<g
   id="g1868">
						<g
   id="g1866">
							<rect
   x="393.67999"
   y="251.66"
   class="st60"
   width="2.03"
   height="5.6199999"
   id="rect1864"
   style="fill:#ff8080" />
						</g>
					</g>
					<g
   id="g1874">
						<g
   id="g1872">
							<rect
   x="395.70001"
   y="251.66"
   class="st15"
   width="2.03"
   height="5.6199999"
   id="rect1870"
   style="fill:#ff5555" />
						</g>
					</g>
					<g
   id="g1880">
						<g
   id="g1878">
							<rect
   x="397.73001"
   y="251.66"
   class="st60"
   width="2.02"
   height="5.6199999"
   id="rect1876"
   style="fill:#ffaaaa" />
						</g>
					</g>
				</g>
				<g
   id="g1888">
					<g
   id="g1886">
						
							<rect
   x="408.39001"
   y="265.82001"
   transform="matrix(0.7071,-0.7071,0.7071,0.7071,-68.3446,369.4254)"
   class="st55"
   width="6.75"
   height="2.79"
   id="rect1884"
   style="fill:#1a1a1a" />
					</g>
				</g>
				<g
   id="g1894">
					<g
   id="g1892">
						
							<rect
   x="406.42001"
   y="263.85001"
   transform="matrix(0.7071,-0.7071,0.7071,0.7071,-67.5281,367.4543)"
   class="st61"
   width="6.75"
   height="2.79"
   id="rect1890"
   style="fill:#808080" />
					</g>
				</g>
				<g
   id="g1908">
					<g
   id="g1900">
						<g
   id="g1898">
							<path
   class="st59"
   d="m 408.72,267.52 -32.12,32.11 c 4.11,4.11 9.79,6.65 16.06,6.65 12.54,0 22.71,-10.17 22.71,-22.71 0,-6.26 -2.54,-11.94 -6.65,-16.05 z"
   id="path1896"
   style="fill:#ff5555" />
						</g>
					</g>
					<g
   id="g1906">
						<g
   id="g1904">
							<path
   class="st62"
   d="m 392.67,260.87 c -12.54,0 -22.71,10.17 -22.71,22.71 0,6.27 2.54,11.95 6.65,16.06 l 32.12,-32.11 c -4.12,-4.12 -9.79,-6.66 -16.06,-6.66 z"
   id="path1902"
   style="fill:#ffaaaa" />
						</g>
					</g>
				</g>
				<g
   id="g1922">
					<g
   id="g1914">
						<g
   id="g1912">
							<path
   class="st0"
   d="m 392.67,302.37 c 10.36,0 18.79,-8.43 18.79,-18.79 0,-5.18 -2.11,-9.88 -5.51,-13.28 l -26.56,26.56 c 3.4,3.4 8.1,5.51 13.28,5.51 z"
   id="path1910" />
						</g>
					</g>
					<g
   id="g1920">
						<g
   id="g1918">
							<path
   class="st0"
   d="m 373.88,283.58 c 0,5.18 2.11,9.88 5.51,13.28 l 26.56,-26.56 c -3.4,-3.4 -8.1,-5.51 -13.28,-5.51 -10.36,0 -18.79,8.43 -18.79,18.79 z"
   id="path1916" />
						</g>
					</g>
				</g>
				<g
   id="g1930">
					<g
   id="g1928">
						<g
   id="g1926">
							<path
   class="st60"
   d="m 392.42,270.23 c -0.38,0 -0.7,-0.31 -0.7,-0.7 v -7.43 c 0,-0.39 0.31,-0.7 0.7,-0.7 0.39,0 0.7,0.31 0.7,0.7 v 7.43 c 0,0.38 -0.31,0.7 -0.7,0.7 z"
   id="path1924"
   style="fill:#ff5555" />
						</g>
					</g>
				</g>
				<g
   id="g1938">
					<g
   id="g1936">
						<g
   id="g1934">
							<path
   class="st60"
   d="m 412.72,283.1 h -7.43 c -0.39,0 -0.7,-0.31 -0.7,-0.7 0,-0.38 0.31,-0.7 0.7,-0.7 h 7.43 c 0.39,0 0.7,0.31 0.7,0.7 0,0.39 -0.31,0.7 -0.7,0.7 z"
   id="path1932"
   style="fill:#ff5555" />
						</g>
					</g>
				</g>
				<g
   id="g1946">
					<g
   id="g1944">
						<g
   id="g1942">
							<path
   class="st60"
   d="m 392.42,304.62 c -0.39,0 -0.7,-0.31 -0.7,-0.7 v -7.79 c 0,-0.38 0.31,-0.7 0.7,-0.7 0.38,0 0.7,0.31 0.7,0.7 v 7.79 c 0,0.39 -0.31,0.7 -0.7,0.7 z"
   id="path1940" />
						</g>
					</g>
				</g>
				<g
   id="g1954">
					<g
   id="g1952">
						<g
   id="g1950">
							<path
   class="st60"
   d="m 379.55,283.1 h -7.43 c -0.39,0 -0.7,-0.31 -0.7,-0.7 0,-0.38 0.31,-0.7 0.7,-0.7 h 7.43 c 0.38,0 0.7,0.31 0.7,0.7 0,0.39 -0.31,0.7 -0.7,0.7 z"
   id="path1948" />
						</g>
					</g>
				</g>
				<g
   id="g1968">
					<g
   id="g1960">
						<g
   id="g1958">
							<path
   class="st3"
   d="m 403.47,272.78 c -0.59,-0.59 -11.87,9.74 -11.87,9.74 -0.59,0.59 -0.59,1.54 0,2.13 z"
   id="path1956" />
						</g>
					</g>
					<g
   id="g1966">
						<g
   id="g1964">
							<path
   class="st31"
   d="m 391.6,284.65 v 0 c 0.29,0.29 0.68,0.44 1.06,0.44 0.39,0 0.77,-0.15 1.07,-0.44 0,0 10.32,-11.28 9.74,-11.87 z"
   id="path1962" />
						</g>
					</g>
				</g>
				<g
   id="g1986">
					<g
   id="g1976">
						<g
   id="g1974">
							<g
   id="g1972">
								<path
   class="st55"
   d="m 391.67,284.57 c 0.25,0.25 0.6,0.41 0.99,0.41 0.77,0 1.4,-0.63 1.4,-1.4 0,-0.39 -0.16,-0.74 -0.41,-0.99 z"
   id="path1970"
   style="fill:#000000" />
							</g>
						</g>
					</g>
					<g
   id="g1984">
						<g
   id="g1982">
							<g
   id="g1980">
								<path
   class="st61"
   d="m 392.67,282.18 c -0.77,0 -1.4,0.63 -1.4,1.4 0,0.39 0.16,0.74 0.41,0.99 l 1.98,-1.98 c -0.26,-0.25 -0.61,-0.41 -0.99,-0.41 z"
   id="path1978"
   style="fill:#1a1a1a" />
							</g>
						</g>
					</g>
				</g>
				<g
   id="g1992">
					<g
   id="g1990">
						<path
   class="st55"
   d="m 407.33,268.92 -1.38,1.39 c 3.4,3.4 5.51,8.1 5.51,13.28 0,10.36 -8.43,18.79 -18.79,18.79 -5.18,0 -9.88,-2.11 -13.28,-5.51 l -1.39,1.39 c 3.76,3.76 8.94,6.08 14.66,6.08 11.44,0 20.75,-9.31 20.75,-20.75 0,-5.73 -2.32,-10.92 -6.08,-14.67 z"
   id="path1988"
   style="fill:#1a1a1a" />
					</g>
				</g>
				<g
   id="g1998">
					<g
   id="g1996">
						<path
   class="st61"
   d="m 373.88,283.58 c 0,-10.36 8.43,-18.79 18.79,-18.79 5.18,0 9.88,2.11 13.28,5.51 l 1.38,-1.39 c -3.76,-3.76 -8.94,-6.08 -14.66,-6.08 -11.44,0 -20.75,9.31 -20.75,20.75 0,5.72 2.33,10.91 6.08,14.66 l 1.39,-1.39 c -3.4,-3.39 -5.51,-8.09 -5.51,-13.27 z"
   id="path1994"
   style="fill:#666666" />
					</g>
				</g>
			</g>
			<g
   id="g2262">
				<g
   id="g2222">
					<g
   id="g2006">
						<g
   id="g2004">
							<polygon
   class="st63"
   points="348.12,308.41 347.63,309.6 347.14,310.79 347.54,310.43 "
   id="polygon2002" />
						</g>
					</g>
					<g
   id="g2012">
						<g
   id="g2010">
							<path
   class="st63"
   d="m 369.47,303.85 c -0.25,0.35 -0.81,1.03 -1.02,1.39 -0.21,0.37 -0.54,1.14 -0.65,1.53 -0.13,0.42 -0.25,1.26 -0.31,1.68 -0.06,0.46 -0.12,1.83 -0.12,1.83 l -0.11,1.57 -0.11,1.57 -0.12,1.83 1.78,0.44 0.09,-1.83 0.08,-1.57 0.08,-1.57 c 0,0 0.03,-1.37 0.09,-1.83 0.07,-0.54 0.26,-1.64 0.48,-2.16 0.2,-0.48 0.79,-1.4 1.15,-1.82 0.26,-0.3 1.22,-1.06 1.22,-1.06 l 0.03,-1.84 c 0,0 -1.06,0.57 -1.37,0.8 -0.34,0.23 -1.19,1.04 -1.19,1.04 z"
   id="path2008" />
						</g>
					</g>
					<g
   id="g2018">
						<g
   id="g2016">
							<polygon
   class="st64"
   points="370.89,306.24 370.17,307.73 369.86,309.36 369.83,310.13 371.86,310.66 371.9,308.68 371.93,306.94 371.97,304.95 "
   id="polygon2014" />
						</g>
					</g>
					<g
   id="g2024">
						<g
   id="g2022">
							<polygon
   class="st65"
   points="371.81,313.29 371.84,311.8 369.79,311.27 369.73,312.76 369.67,314.05 369.61,315.53 371.76,316.07 371.79,314.58 "
   id="polygon2020" />
						</g>
					</g>
					<g
   id="g2122">
						<g
   id="g2030">
							<g
   id="g2028">
								<polygon
   class="st66"
   points="371.97,317.25 371.97,316.43 358.92,310.44 358.79,311.26 "
   id="polygon2026"
   style="fill:#000000" />
							</g>
						</g>
						<g
   id="g2036">
							<g
   id="g2034">
								<polygon
   class="st66"
   points="363.06,285.77 362.93,286.59 371.97,289.9 371.97,289.07 "
   id="polygon2032"
   style="fill:#000000" />
							</g>
						</g>
						<g
   id="g2042">
							<g
   id="g2040">
								<polygon
   class="st61"
   points="357.4,294.87 355.61,296.22 353.55,297.11 351.16,297.78 350.68,299.43 353.1,298.77 355.15,298.2 357.17,297.62 359.49,296.96 360.6,295.69 361.69,294.42 362.02,292.32 362.31,290.5 362.59,288.69 362.93,286.59 361.57,287.04 360.2,287.49 359.81,289.5 359.41,291.52 358.72,293.24 "
   id="polygon2038" />
							</g>
						</g>
						<g
   id="g2048">
							<g
   id="g2046">
								<polygon
   class="st61"
   points="349.23,304.52 348.72,306.32 348.12,308.41 350.11,306.58 351.8,304.96 353.34,303.45 354.84,301.94 356.4,300.33 358.11,298.49 356.06,299.06 354.28,299.56 352.47,300.05 350.34,300.63 349.75,302.72 "
   id="polygon2044" />
							</g>
						</g>
						<g
   id="g2054">
							<g
   id="g2052">
								<path
   class="st61"
   d="m 347.14,310.79 -1.23,4.91 13.01,-5.26 0.17,0.34 0.33,-2.11 0.31,-1.95 0.3,-1.88 0.3,-1.88 0.31,-1.95 0.33,-2.11 0.37,-2.34 -1.74,1.96 -1.63,1.77 -1.56,1.64 -1.54,1.57 -1.59,1.57 -1.7,1.64 -1.89,1.76 -2.17,1.96 z"
   id="path2050" />
							</g>
						</g>
						<g
   id="g2060">
							<g
   id="g2058">
								<polygon
   class="st65"
   points="359.83,304.84 359.54,306.72 359.23,308.67 358.89,310.78 358.72,310.44 371.97,316.43 371.97,289.9 370.48,289.36 361.15,296.57 360.78,298.91 360.44,301.02 360.13,302.97 "
   id="polygon2056" />
							</g>
						</g>
						<g
   id="g2066">
							<g
   id="g2064">
								<polygon
   class="st65"
   points="362.93,286.59 362.59,288.69 362.31,290.5 362.02,292.32 361.69,294.42 363.33,293.17 364.74,292.09 366.05,291.07 367.38,289.98 368.88,288.74 367.23,288.16 365.84,287.66 364.47,287.16 "
   id="polygon2062" />
							</g>
						</g>
						<g
   id="g2072">
							<g
   id="g2070">
								<polygon
   class="st12"
   points="359.41,291.52 359.81,289.5 360.2,287.49 358.44,288.06 356.89,288.55 355.33,289.04 353.49,289.61 352.86,291.81 352.32,293.7 351.78,295.59 351.16,297.78 353.55,297.11 355.61,296.22 357.4,294.87 358.72,293.24 "
   id="polygon2068" />
							</g>
						</g>
						<g
   id="g2078">
							<g
   id="g2076">
								<polygon
   class="st63"
   points="359.49,296.96 357.17,297.62 355.15,298.2 353.1,298.77 350.68,299.43 350.34,300.63 352.47,300.05 354.28,299.56 356.06,299.06 358.11,298.49 "
   id="polygon2074" />
							</g>
						</g>
						<g
   id="g2084">
							<g
   id="g2082">
								<polygon
   class="st63"
   points="364.77,294.06 366.21,292.96 367.61,291.87 369.07,290.7 370.68,289.36 368.88,288.74 367.38,289.98 366.05,291.07 364.74,292.09 363.33,293.17 361.69,294.42 361.52,295.49 361.35,296.57 363.19,295.23 "
   id="polygon2080" />
							</g>
						</g>
						<g
   id="g2090">
							<g
   id="g2088">
								<polygon
   class="st63"
   points="351.6,306.71 353.3,305.07 354.89,303.5 356.43,301.93 357.98,300.29 359.61,298.53 361.35,296.57 361.52,295.49 361.69,294.42 360.6,295.69 359.49,296.96 358.11,298.49 356.4,300.33 354.84,301.94 353.34,303.45 351.8,304.96 350.11,306.58 348.12,308.41 347.54,310.43 349.71,308.47 "
   id="polygon2086" />
							</g>
						</g>
						<g
   id="g2096">
							<g
   id="g2094">
								<polygon
   class="st67"
   points="348.8,314.34 357.75,310.14 358.3,307.14 356.29,307.65 354.26,308.17 352.21,308.68 350.14,309.2 349.67,310.99 349.27,312.55 "
   id="polygon2092" />
							</g>
						</g>
						<g
   id="g2102">
							<g
   id="g2100">
								<polygon
   class="st67"
   points="355.02,304.72 354.64,306.44 354.26,308.17 356.29,307.65 358.3,307.14 358.6,305.41 358.9,303.69 356.97,304.2 "
   id="polygon2098" />
							</g>
						</g>
						<g
   id="g2108">
							<g
   id="g2106">
								<polygon
   class="st67"
   points="366.5,311.12 366.63,309.38 366.77,307.56 366.93,305.45 364.97,304.9 363.28,304.42 361.38,303.86 360.2,310.77 366.36,312.94 "
   id="polygon2104" />
							</g>
						</g>
						<g
   id="g2114">
							<g
   id="g2112">
								<polygon
   class="st67"
   points="368.53,293.99 366.64,295.46 364.96,296.73 363.24,298 361.16,299.47 362.45,300.88 363.61,302.11 364.99,303.53 366.98,302.12 368.65,300.91 370.27,299.71 371.97,298.3 371.97,297.72 370.82,296.42 369.73,295.29 "
   id="polygon2110" />
							</g>
						</g>
						<g
   id="g2120">
							<g
   id="g2118">
								<polygon
   class="st68"
   points="358.44,288.06 360.2,287.49 361.57,287.04 362.93,286.59 363.06,285.77 352.78,289.08 344.39,317.25 358.79,311.26 358.92,310.44 345.91,315.7 353.49,289.61 355.33,289.04 356.89,288.55 "
   id="polygon2116"
   style="fill:#000000" />
							</g>
						</g>
					</g>
					<g
   id="g2214">
						<g
   id="g2128">
							<g
   id="g2126">
								<polygon
   class="st23"
   points="396.69,312.42 396.19,310.43 396.58,310.79 396.14,309.6 395.69,308.41 395.17,306.32 394.73,304.52 394.28,302.72 393.76,300.63 393.46,299.43 393.05,297.78 392.51,295.59 392.04,293.7 391.57,291.81 391.02,289.61 389.2,289.04 387.66,288.55 386.14,288.06 384.39,287.49 383.04,287.04 381.7,286.59 381.6,285.77 391.75,289.08 399.09,317.25 385.21,311.26 385.11,310.44 397.5,315.7 397.12,314.15 "
   id="polygon2124"
   style="fill:#000000" />
							</g>
						</g>
						<g
   id="g2134">
							<g
   id="g2132">
								<polygon
   class="st66"
   points="371.97,317.25 371.97,316.43 385.11,310.44 385.21,311.26 "
   id="polygon2130"
   style="fill:#000000" />
							</g>
						</g>
						<g
   id="g2140">
							<g
   id="g2138">
								<polygon
   class="st66"
   points="381.6,285.77 381.7,286.59 371.97,289.9 371.97,289.07 "
   id="polygon2136"
   style="fill:#000000" />
							</g>
						</g>
						<g
   id="g2146">
							<g
   id="g2144">
								<polygon
   class="st61"
   points="396.19,310.43 386.46,306.35 382.65,294.42 382.39,292.32 382.17,290.5 381.95,288.69 381.7,286.59 383.04,287.04 384.39,287.49 384.71,289.5 385.03,291.52 385.66,293.24 386.92,294.87 388.65,296.22 390.68,297.11 393.05,297.78 "
   id="polygon2142" />
							</g>
						</g>
						<g
   id="g2152">
							<g
   id="g2150">
								<polygon
   class="st61"
   points="394.73,304.52 395.17,306.32 395.69,308.41 393.78,306.58 392.14,304.96 390.66,303.45 389.22,301.94 387.72,300.33 386.07,298.49 388.1,299.06 389.87,299.56 391.66,300.05 393.76,300.63 394.28,302.72 "
   id="polygon2148" />
							</g>
						</g>
						<g
   id="g2158">
							<g
   id="g2156">
								<path
   class="st61"
   d="m 396.19,310.43 0.49,1.99 0.43,1.73 0.38,1.55 -12.39,-5.26 -2.21,-13.87 1.67,1.96 1.56,1.77 1.5,1.64 1.48,1.57 1.53,1.57 1.64,1.64 1.82,1.76 z"
   id="path2154" />
							</g>
						</g>
						<g
   id="g2164">
							<g
   id="g2162">
								<polygon
   class="st65"
   points="371.97,289.36 373.85,289.36 382.91,296.57 385.11,310.44 371.97,316.43 "
   id="polygon2160" />
							</g>
						</g>
						<g
   id="g2170">
							<g
   id="g2168">
								<polygon
   class="st65"
   points="381.7,286.59 381.95,288.69 382.17,290.5 382.39,292.32 382.65,294.42 381.05,293.17 379.68,292.09 378.41,291.07 377.12,289.98 375.67,288.74 377.34,288.16 378.75,287.66 380.14,287.16 "
   id="polygon2166" />
							</g>
						</g>
						<g
   id="g2176">
							<g
   id="g2174">
								<path
   class="st12"
   d="m 381.7,286.59 2.69,0.9 1.75,0.57 1.52,0.49 1.54,0.49 1.82,0.57 0.54,2.2 0.47,1.89 0.47,1.89 0.54,2.2 -2.37,-0.67 -0.02,0.01 c -0.92,0.61 -2.36,0.42 -3.3,-0.43 l -1.9,-1.76 c -1.41,-0.58 -2.44,-1.76 -2.71,-3.08 z"
   id="path2172" />
							</g>
						</g>
						<g
   id="g2182">
							<g
   id="g2180">
								<polygon
   class="st63"
   points="379.58,294.06 378.18,292.96 376.82,291.87 375.4,290.7 373.85,289.36 375.67,288.74 377.12,289.98 378.41,291.07 379.68,292.09 381.05,293.17 382.65,294.42 382.78,295.49 382.91,296.57 381.12,295.23 "
   id="polygon2178" />
							</g>
						</g>
						<g
   id="g2188">
							<g
   id="g2186">
								<polygon
   class="st63"
   points="393.78,306.58 395.69,308.41 396.19,310.43 382.91,296.57 382.78,295.49 382.65,294.42 "
   id="polygon2184" />
							</g>
						</g>
						<g
   id="g2194">
							<g
   id="g2192">
								<polygon
   class="st67"
   points="386.46,309.6 385.56,307.14 393.64,309.2 394.79,314.34 "
   id="polygon2190" />
							</g>
						</g>
						<g
   id="g2200">
							<g
   id="g2198">
								<path
   class="st67"
   d="m 393.7,302.39 -1.79,-0.48 -0.89,-0.24 c -0.53,-0.14 -0.94,-0.53 -1.03,-0.96 l -0.18,-0.88 -0.03,-0.17 c -0.14,-0.7 0.57,-1.2 1.39,-0.97 h 0.02 l 0.86,0.24 c 0.52,0.14 0.93,0.53 1.04,0.96 l 0.21,0.88 z"
   id="path2196" />
							</g>
						</g>
						<g
   id="g2206">
							<g
   id="g2204">
								<polygon
   class="st67"
   points="372.47,315.93 372.57,307.46 382.61,303.86 383.82,310.77 "
   id="polygon2202" />
							</g>
						</g>
						<g
   id="g2212">
							<g
   id="g2210">
								<polygon
   class="st67"
   points="375.45,300.91 373.87,299.71 371.97,298.3 371.97,297.72 373.44,296.42 374.57,295.29 375.82,293.99 377.65,295.46 379.28,296.73 380.97,298 379.01,303.53 373.9,303.62 "
   id="polygon2208" />
							</g>
						</g>
					</g>
					<g
   id="g2220">
						<g
   id="g2218">
							<polygon
   class="st67"
   points="372.1,297.72 372.09,298.3 372.42,297.85 "
   id="polygon2216" />
						</g>
					</g>
				</g>
				<g
   id="g2260">
					<g
   id="g2228">
						<g
   id="g2226">
							<path
   class="st3"
   d="m 365.63,279.45 c 0,-3.38 2.74,-6.12 6.12,-6.12 v -4 c -5.59,0 -10.12,4.53 -10.12,10.12 0,5.59 10.12,26.31 10.12,26.31 v -20.19 c -3.39,-0.01 -6.12,-2.75 -6.12,-6.12 z"
   id="path2224" />
						</g>
					</g>
					<g
   id="g2234">
						<g
   id="g2232">
							<path
   class="st31"
   d="m 371.74,269.33 v 4 c 3.38,0 6.12,2.74 6.12,6.12 0,3.38 -2.74,6.12 -6.12,6.12 v 20.19 c 0,0 10.12,-20.72 10.12,-26.31 0,-5.59 -4.53,-10.12 -10.12,-10.12 z"
   id="path2230" />
						</g>
					</g>
					<g
   id="g2240">
						<g
   id="g2238">
							<path
   class="st3"
   d="m 376.3,279.45 c 0,2.52 -2.04,4.56 -4.56,4.56 v 1.55 c 3.38,0 6.12,-2.74 6.12,-6.12 0,-3.38 -2.74,-6.12 -6.12,-6.12 v 1.55 c 2.52,0.01 4.56,2.05 4.56,4.58 z"
   id="path2236" />
						</g>
					</g>
					<g
   id="g2246">
						<g
   id="g2244">
							<path
   class="st31"
   d="m 365.63,279.45 c 0,3.38 2.74,6.12 6.12,6.12 v -1.55 c -2.52,0 -4.56,-2.04 -4.56,-4.56 0,-2.52 2.04,-4.56 4.56,-4.56 v -1.55 c -3.39,-0.02 -6.12,2.72 -6.12,6.1 z"
   id="path2242" />
						</g>
					</g>
					<g
   id="g2252">
						<g
   id="g2250">
							<path
   class="st69"
   d="m 367.18,279.45 c 0,2.52 2.04,4.56 4.56,4.56 v -9.13 c -2.52,0 -4.56,2.04 -4.56,4.57 z"
   id="path2248"
   style="fill:#e6e6e6" />
						</g>
					</g>
					<g
   id="g2258">
						<g
   id="g2256">
							<path
   class="st54"
   d="m 376.3,279.45 c 0,-2.52 -2.04,-4.56 -4.56,-4.56 v 9.13 c 2.52,-0.01 4.56,-2.05 4.56,-4.57 z"
   id="path2254"
   style="fill:#cccccc" />
						</g>
					</g>
				</g>
			</g>
		</g>
	</g>
	
</g>
</svg>
