<?xml version="1.0" encoding="UTF-8" standalone="no"?>
<svg
   xmlns:dc="http://purl.org/dc/elements/1.1/"
   xmlns:cc="http://creativecommons.org/ns#"
   xmlns:rdf="http://www.w3.org/1999/02/22-rdf-syntax-ns#"
   xmlns:svg="http://www.w3.org/2000/svg"
   xmlns="http://www.w3.org/2000/svg"
   xmlns:sodipodi="http://sodipodi.sourceforge.net/DTD/sodipodi-0.dtd"
   xmlns:inkscape="http://www.inkscape.org/namespaces/inkscape"
   version="1.1"
   id="Layer_1"
   x="0px"
   y="0px"
   viewBox="0 0 639.99987 479.99998"
   xml:space="preserve"
   sodipodi:docname="euro.svg"
   inkscape:version="1.0.1 (3bc2e813f5, 2020-09-07)"
   width="16.933331cm"
   height="12.7cm"><metadata
   id="metadata41"><rdf:RDF><cc:Work
       rdf:about=""><dc:format>image/svg+xml</dc:format><dc:type
         rdf:resource="http://purl.org/dc/dcmitype/StillImage" /><dc:title /></cc:Work></rdf:RDF></metadata><defs
   id="defs39" /><sodipodi:namedview
   pagecolor="#ffffff"
   bordercolor="#666666"
   borderopacity="1"
   objecttolerance="10"
   gridtolerance="10"
   guidetolerance="10"
   inkscape:pageopacity="0"
   inkscape:pageshadow="2"
   inkscape:window-width="1366"
   inkscape:window-height="705"
   id="namedview37"
   showgrid="false"
   inkscape:zoom="0.72920399"
   inkscape:cx="363.07439"
   inkscape:cy="258.305"
   inkscape:window-x="-8"
   inkscape:window-y="-8"
   inkscape:window-maximized="1"
   inkscape:current-layer="Layer_1"
   units="cm"
   inkscape:document-rotation="0" />


<path
   id="rect852"
   style="opacity:0.997;fill:#ff0066;stroke:#000000;stroke-width:2.24751;stroke-opacity:0"
   d="m 395.29586,11.477977 c -20.13161,0.02868 -39.68998,1.920663 -55.92915,5.617984 -69.19963,15.7553 -121.40105,59.715134 -154.08284,129.753239 l -10.28677,22.04971 -18.12878,0.60484 c -9.96983,0.33206 -18.99132,1.36027 -20.05133,2.28534 -1.92923,1.68371 -13.12275,37.61989 -13.21088,42.41488 -0.0344,1.87142 6.21761,2.54512 23.61158,2.54512 h 23.6543 l -1.47157,10.68797 c -0.8092,5.87922 -1.47943,13.66899 -1.49058,17.30853 l -0.0243,6.61656 H 150.67773 133.4651 l -6.11886,21.31501 c -3.36631,11.7244 -6.11888,22.26375 -6.11888,23.41768 0,1.32058 10.15926,2.09809 27.41389,2.10269 l 27.41392,0.0125 4.1394,14.5361 c 13.08313,45.94765 44.81346,91.54114 82.68798,118.80549 18.0953,13.02614 51.24342,27.86978 72.91864,32.65243 32.69872,7.21493 59.35422,8.35818 95.8989,4.112 25.93568,-3.01352 45.2631,-6.80155 68.82672,-13.48881 l 14.17931,-4.02674 -5.39733,-33.03402 c -7.76445,-47.52184 -5.13422,-43.3972 -22.40584,-35.13668 -8.00373,3.82798 -24.00172,9.6985 -35.5503,13.04637 -86.94339,25.20431 -148.65176,-0.99193 -183.40979,-77.86008 -3.61441,-7.99316 -6.6064,-15.67735 -6.65057,-17.07715 -0.063,-1.99676 20.99222,-2.54514 97.71698,-2.54514 h 97.79294 l 5.07454,-19.85369 c 2.78926,-10.9186 5.61238,-21.91279 6.27554,-24.43248 l 1.20576,-4.58289 H 360.76091 252.16379 l -1.53804,-8.95867 c -0.84689,-4.92876 -0.84083,-10.88682 0.0147,-13.23715 1.54919,-4.2591 1.91111,-4.27032 109.37562,-4.27028 h 107.82335 l 8.99555,-23.92509 c 4.94823,-13.15831 9.48646,-25.0704 10.08737,-26.47023 0.86466,-2.01428 -22.56494,-2.54514 -112.33774,-2.54514 H 261.15493 l 8.50189,-14.76343 c 20.41508,-35.44391 44.73453,-56.263714 79.60242,-68.150379 13.69443,-4.668543 19.30885,-5.391997 42.60433,-5.479962 31.09576,-0.11768 49.975,3.770338 83.04873,17.1056 11.18825,4.511061 20.61152,7.965441 20.93904,7.675991 0.3275,-0.28944 6.07217,-16.431802 12.76942,-35.871409 9.94827,-28.876056 11.58832,-35.660434 8.95287,-37.085104 C 509.42439,28.944248 467.3685,18.629604 442.02509,14.823194 426.96187,12.560813 410.95354,11.456121 395.29565,11.47838 Z"
   sodipodi:nodetypes="cscccssscccccccscccsssccssssssccccccccsccssccscssssscc" /><rect
   style="opacity:0.997;fill:none;stroke:#000000;stroke-width:1.03439;stroke-opacity:1"
   id="rect846"
   width="692.97687"
   height="502.3844"
   x="-22.847857"
   y="-9.833128" /><g
   id="g6"
   style="stroke:#000000;stroke-opacity:1"
   transform="translate(2.7427168,-8.2281503)">
</g>
<g
   id="g8"
   style="stroke:#000000;stroke-opacity:1"
   transform="translate(2.7427168,-8.2281503)">
</g>
<g
   id="g10"
   style="stroke:#000000;stroke-opacity:1"
   transform="translate(2.7427168,-8.2281503)">
</g>
<g
   id="g12"
   style="stroke:#000000;stroke-opacity:1"
   transform="translate(2.7427168,-8.2281503)">
</g>
<g
   id="g14"
   style="stroke:#000000;stroke-opacity:1"
   transform="translate(2.7427168,-8.2281503)">
</g>
<g
   id="g16"
   style="stroke:#000000;stroke-opacity:1"
   transform="translate(2.7427168,-8.2281503)">
</g>
<g
   id="g18"
   style="stroke:#000000;stroke-opacity:1"
   transform="translate(2.7427168,-8.2281503)">
</g>
<g
   id="g20"
   style="stroke:#000000;stroke-opacity:1"
   transform="translate(2.7427168,-8.2281503)">
</g>
<g
   id="g22"
   style="stroke:#000000;stroke-opacity:1"
   transform="translate(2.7427168,-8.2281503)">
</g>
<g
   id="g24"
   style="stroke:#000000;stroke-opacity:1"
   transform="translate(2.7427168,-8.2281503)">
</g>
<g
   id="g26"
   style="stroke:#000000;stroke-opacity:1"
   transform="translate(2.7427168,-8.2281503)">
</g>
<g
   id="g28"
   style="stroke:#000000;stroke-opacity:1"
   transform="translate(2.7427168,-8.2281503)">
</g>
<g
   id="g30"
   style="stroke:#000000;stroke-opacity:1"
   transform="translate(2.7427168,-8.2281503)">
</g>
<g
   id="g32"
   style="stroke:#000000;stroke-opacity:1"
   transform="translate(2.7427168,-8.2281503)">
</g>
<g
   id="g34"
   style="stroke:#000000;stroke-opacity:1"
   transform="translate(2.7427168,-8.2281503)">
</g>
</svg>
