<?xml version="1.0" encoding="UTF-8" standalone="no"?>
<svg
   xmlns:dc="http://purl.org/dc/elements/1.1/"
   xmlns:cc="http://creativecommons.org/ns#"
   xmlns:rdf="http://www.w3.org/1999/02/22-rdf-syntax-ns#"
   xmlns:svg="http://www.w3.org/2000/svg"
   xmlns="http://www.w3.org/2000/svg"
   xmlns:sodipodi="http://sodipodi.sourceforge.net/DTD/sodipodi-0.dtd"
   xmlns:inkscape="http://www.inkscape.org/namespaces/inkscape"
   version="1.1"
   id="Layer_1"
   x="0px"
   y="0px"
   viewBox="0 0 639.99987 479.99998"
   xml:space="preserve"
   sodipodi:docname="usd.svg"
   inkscape:version="1.0.1 (3bc2e813f5, 2020-09-07)"
   width="16.933331cm"
   height="12.7cm"><metadata
   id="metadata41"><rdf:RDF><cc:Work
       rdf:about=""><dc:format>image/svg+xml</dc:format><dc:type
         rdf:resource="http://purl.org/dc/dcmitype/StillImage" /><dc:title /></cc:Work></rdf:RDF></metadata><defs
   id="defs39" /><sodipodi:namedview
   pagecolor="#ffffff"
   bordercolor="#666666"
   borderopacity="1"
   objecttolerance="10"
   gridtolerance="10"
   guidetolerance="10"
   inkscape:pageopacity="0"
   inkscape:pageshadow="2"
   inkscape:window-width="1366"
   inkscape:window-height="705"
   id="namedview37"
   showgrid="false"
   inkscape:zoom="0.72920399"
   inkscape:cx="317.52967"
   inkscape:cy="258.305"
   inkscape:window-x="-8"
   inkscape:window-y="-8"
   inkscape:window-maximized="1"
   inkscape:current-layer="Layer_1"
   units="cm"
   inkscape:document-rotation="0" />

<rect
   style="opacity:0.997;fill:none;stroke:#000000;stroke-width:1.03439;stroke-opacity:1"
   id="rect846"
   width="692.97687"
   height="502.3844"
   x="-25.590576"
   y="-8.461772" /><path
   style="fill:#00d455;stroke-width:1.62041"
   d="M 304.12074,363.50193 V 253.7111 c -41.22993,-9.78177 -71.46425,-24.58437 -90.71012,-44.42552 -19.24583,-19.82342 -28.86875,-43.89387 -28.86875,-72.19367 0,-28.64827 10.88179,-52.712807 32.65251,-72.199556 21.77071,-19.474924 50.74616,-30.69796 86.92636,-33.663206 V 5.280303 h 45.75334 v 25.948845 c 33.44197,3.319657 60.04905,12.794263 79.82122,28.429731 19.77214,15.629555 32.39646,36.551677 37.86579,62.754491 l -79.8283,8.64766 C 382.88931,110.45788 370.27212,96.476353 349.87408,89.134113 V 191.59454 c 50.48303,11.35889 84.87805,26.0729 103.17083,44.15971 18.29992,18.08679 27.44632,41.26534 27.44632,69.56511 0,31.62532 -11.5148,58.25937 -34.54438,79.91985 -23.02959,21.66046 -55.06331,34.93908 -96.07989,39.82994 v 48.99744 H 304.1136 v -47.6861 C 267.72006,422.71232 238.17561,411.44793 215.45187,392.57551 192.73521,373.709 178.22618,347.06905 171.91045,312.65566 l 82.34605,-7.3363 c 3.36409,13.97562 9.67273,26.03153 18.93292,36.1618 9.2602,10.14799 19.573,17.48431 30.93132,22.02077 z m 0,-275.135712 c -12.41093,3.496867 -22.29703,9.433273 -29.65822,17.821012 -7.36834,8.38185 -11.04539,17.64379 -11.04539,27.77406 0,9.25604 3.36409,17.85643 10.09233,25.80708 6.72822,7.95655 16.92724,14.37729 30.60414,19.26227 z M 349.86696,367.1701 c 15.77508,-2.43363 28.59853,-8.50588 38.49171,-18.20496 9.88607,-9.69906 14.82913,-21.0934 14.82913,-34.19481 0,-11.69557 -4.15357,-21.7845 -12.46073,-30.26675 -8.30716,-8.47637 -21.9272,-14.97392 -40.86011,-19.5281 z"
   id="path4" />
<g
   id="g6"
   style="stroke:#000000;stroke-opacity:1"
   transform="translate(6.8567919,6.8567919)">
</g>
<g
   id="g8"
   style="stroke:#000000;stroke-opacity:1"
   transform="translate(6.8567919,6.8567919)">
</g>
<g
   id="g10"
   style="stroke:#000000;stroke-opacity:1"
   transform="translate(6.8567919,6.8567919)">
</g>
<g
   id="g12"
   style="stroke:#000000;stroke-opacity:1"
   transform="translate(6.8567919,6.8567919)">
</g>
<g
   id="g14"
   style="stroke:#000000;stroke-opacity:1"
   transform="translate(6.8567919,6.8567919)">
</g>
<g
   id="g16"
   style="stroke:#000000;stroke-opacity:1"
   transform="translate(6.8567919,6.8567919)">
</g>
<g
   id="g18"
   style="stroke:#000000;stroke-opacity:1"
   transform="translate(6.8567919,6.8567919)">
</g>
<g
   id="g20"
   style="stroke:#000000;stroke-opacity:1"
   transform="translate(6.8567919,6.8567919)">
</g>
<g
   id="g22"
   style="stroke:#000000;stroke-opacity:1"
   transform="translate(6.8567919,6.8567919)">
</g>
<g
   id="g24"
   style="stroke:#000000;stroke-opacity:1"
   transform="translate(6.8567919,6.8567919)">
</g>
<g
   id="g26"
   style="stroke:#000000;stroke-opacity:1"
   transform="translate(6.8567919,6.8567919)">
</g>
<g
   id="g28"
   style="stroke:#000000;stroke-opacity:1"
   transform="translate(6.8567919,6.8567919)">
</g>
<g
   id="g30"
   style="stroke:#000000;stroke-opacity:1"
   transform="translate(6.8567919,6.8567919)">
</g>
<g
   id="g32"
   style="stroke:#000000;stroke-opacity:1"
   transform="translate(6.8567919,6.8567919)">
</g>
<g
   id="g34"
   style="stroke:#000000;stroke-opacity:1"
   transform="translate(6.8567919,6.8567919)">
</g>
</svg>
