<?xml version="1.0" encoding="UTF-8" standalone="no"?>
<svg
   xmlns:dc="http://purl.org/dc/elements/1.1/"
   xmlns:cc="http://creativecommons.org/ns#"
   xmlns:rdf="http://www.w3.org/1999/02/22-rdf-syntax-ns#"
   xmlns:svg="http://www.w3.org/2000/svg"
   xmlns="http://www.w3.org/2000/svg"
   xmlns:sodipodi="http://sodipodi.sourceforge.net/DTD/sodipodi-0.dtd"
   xmlns:inkscape="http://www.inkscape.org/namespaces/inkscape"
   version="1.1"
   id="Layer_1"
   x="0px"
   y="0px"
   viewBox="0 0 639.99987 479.99998"
   xml:space="preserve"
   sodipodi:docname="xof.svg"
   inkscape:version="1.0.1 (3bc2e813f5, 2020-09-07)"
   width="16.933331cm"
   height="12.7cm"><metadata
   id="metadata41"><rdf:RDF><cc:Work
       rdf:about=""><dc:format>image/svg+xml</dc:format><dc:type
         rdf:resource="http://purl.org/dc/dcmitype/StillImage" /><dc:title></dc:title></cc:Work></rdf:RDF></metadata><defs
   id="defs39" /><sodipodi:namedview
   pagecolor="#ffffff"
   bordercolor="#666666"
   borderopacity="1"
   objecttolerance="10"
   gridtolerance="10"
   guidetolerance="10"
   inkscape:pageopacity="0"
   inkscape:pageshadow="2"
   inkscape:window-width="1366"
   inkscape:window-height="705"
   id="namedview37"
   showgrid="false"
   inkscape:zoom="0.72920399"
   inkscape:cx="363.07439"
   inkscape:cy="241.72989"
   inkscape:window-x="-8"
   inkscape:window-y="-8"
   inkscape:window-maximized="1"
   inkscape:current-layer="Layer_1"
   units="cm"
   inkscape:document-rotation="0" />


<rect
   style="opacity:0.997;fill:none;stroke:#000000;stroke-width:1.03439;stroke-opacity:1"
   id="rect846"
   width="692.97687"
   height="502.3844"
   x="-19.646637"
   y="-7.3307171" /><g
   id="g6"
   style="stroke:#000000;stroke-opacity:0.99999994;fill:none">
</g>
<g
   id="g8"
   style="stroke:#000000;stroke-opacity:0.99999994;fill:none">
</g>
<g
   id="g10"
   style="stroke:#000000;stroke-opacity:0.99999994;fill:none">
</g>
<g
   id="g12"
   style="stroke:#000000;stroke-opacity:0.99999994;fill:none">
</g>
<g
   id="g14"
   style="stroke:#000000;stroke-opacity:0.99999994;fill:none">
</g>
<g
   id="g16"
   style="stroke:#000000;stroke-opacity:0.99999994;fill:none">
</g>
<g
   id="g18"
   style="stroke:#000000;stroke-opacity:0.99999994;fill:none">
</g>
<g
   id="g20"
   style="stroke:#000000;stroke-opacity:0.99999994;fill:none">
</g>
<g
   id="g22"
   style="stroke:#000000;stroke-opacity:0.99999994;fill:none">
</g>
<g
   id="g24"
   style="stroke:#000000;stroke-opacity:0.99999994;fill:none">
</g>
<g
   id="g26"
   style="stroke:#000000;stroke-opacity:0.99999994;fill:none">
</g>
<g
   id="g28"
   style="stroke:#000000;stroke-opacity:0.99999994;fill:none">
</g>
<g
   id="g30"
   style="stroke:#000000;stroke-opacity:0.99999994;fill:none">
</g>
<g
   id="g32"
   style="stroke:#000000;stroke-opacity:0.99999994;fill:none">
</g>
<g
   id="g34"
   style="stroke:#000000;stroke-opacity:0.99999994;fill:none">
</g>
<path
   style="fill:#ff6600;stroke-width:2.77909"
   d="m 387.65364,475.74662 c -1.63033,-0.49446 -6.63246,-1.61014 -11.11587,-2.47931 -9.14562,-1.77301 -10.50117,-7.65079 -3.61102,-15.658 5.81946,-6.76294 5.49397,-15.31541 -0.83532,-21.94775 -4.09927,-4.29554 -9.18904,-5.58583 -24.26429,-6.15107 -18.26619,-0.68486 -18.85278,-0.91144 -13.80405,-5.33143 2.90006,-2.5389 13.15202,-6.54172 22.78214,-8.89512 l 17.50938,-4.27893 v -10.89384 c 0,-16.57599 -5.54587,-19.51803 -36.79223,-19.51803 -19.39743,0 -25.66038,-0.82246 -24.80114,-3.2569 1.82259,-5.16399 21.10704,-12.41862 37.56628,-14.13203 19.3178,-2.01106 21.84315,-4.84895 19.30147,-21.69034 -1.46554,-9.71092 -4.19994,-15.263 -9.74148,-19.77959 -7.23315,-5.89532 -9.83483,-6.27911 -42.56405,-6.27911 -19.17298,0 -34.86,-1.04517 -34.86,-2.3226 0,-4.24053 24.54673,-11.03803 50.2389,-13.91222 13.94194,-1.55968 26.61627,-3.82116 28.16516,-5.02548 3.24682,-2.52448 -3.05076,-32.87407 -7.88819,-38.01524 -1.68546,-1.79129 -6.96348,-3.25689 -11.72896,-3.25689 -21.29001,0 -31.92613,-26.40896 -16.52157,-41.02224 l 6.1644,-5.84775 -36.47868,-42.13777 c -20.06323,-23.1758 -37.11809,-44.28709 -37.8996,-46.91402 -1.66508,-5.59673 -2.90925,-5.45517 51.1445,-5.81934 l 38.535,-0.25952 1.48212,-16.935867 1.4821,-16.935858 12.59798,-0.801213 c 6.9289,-0.440641 12.59799,-1.378231 12.59799,-2.08352 0,-3.647375 -9.29368,-16.145851 -16.26044,-21.867701 -17.29044,-14.200747 -52.23129,-5.276881 -86.70422,22.144165 -17.44173,13.87382 -39.36292,37.336954 -39.27734,42.040124 0.0237,1.24102 7.49303,9.87758 16.601,19.19232 9.10794,9.31472 21.92282,23.09256 28.47749,30.61745 11.22426,12.88563 11.70065,14.14199 8.18842,21.59512 -5.00944,10.6304 -25.03356,20.74193 -41.07576,20.74193 -11.82074,0 -12.7112,-0.55367 -17.80932,-11.07345 -2.95154,-6.09042 -8.26021,-18.69458 -11.79705,-28.00931 -10.36485,-27.29737 -8.72328,-27.15923 -37.19774,-3.13073 -16.57813,13.98969 -27.65053,21.366 -32.06228,21.35961 -16.68718,-0.0234 -37.8635,-21.05667 -37.8635,-37.60643 0,-8.72089 7.00718,-12.45452 56.48325,-30.09606 l 40.99108,-14.61606 12.57871,-16.808643 c 16.36795,-21.87209 56.31063,-56.576856 75.52315,-65.619369 20.64137,-9.715004 49.70938,-15.956 65.4717,-14.056996 39.6244,4.773876 67.5458,32.213685 82.5299,81.106347 l 6.3881,20.844141 43.76614,0.72266 c 40.51337,0.66897 43.66217,1.07218 42.36711,5.42524 -0.7695,2.58643 -17.05899,23.04077 -36.19893,45.45409 l -34.79987,40.75148 6.53401,11.86412 c 4.30185,7.81105 5.88338,14.1428 4.62944,18.53424 -2.84527,9.96467 -14.84539,19.24892 -24.8796,19.24892 -4.76548,0 -9.96309,1.46561 -11.55025,3.25692 -4.99431,5.63657 -10.02052,33.64659 -6.67374,37.19121 1.65269,1.75041 11.31935,3.98136 21.48146,4.95773 30.44624,2.92522 55.52942,9.68344 55.52942,14.96136 0,1.19089 -15.23751,2.16524 -33.86119,2.16524 -32.22817,0 -34.30743,0.33001 -43.11307,6.84285 -8.74264,6.46619 -9.2038,7.71957 -8.37908,22.77177 l 0.87279,15.9289 16.22044,2.04248 c 17.7403,2.2339 36.15248,9.16716 37.96234,14.29504 0.86106,2.43961 -5.56496,3.25691 -25.6075,3.25691 -24.28963,0 -27.18251,0.53401 -31.37143,5.79079 -2.53793,3.18492 -4.61441,10.08061 -4.61441,15.32379 0,9.16985 0.5252,9.64925 13.78681,12.58446 16.54255,3.66139 30.67661,9.77418 30.67661,13.26721 0,1.39624 -8.50703,2.53859 -18.90454,2.53859 -11.58512,0 -20.03872,1.26101 -21.83394,3.25692 -5.02009,5.58133 -6.04538,17.37311 -1.9254,22.14382 4.30121,4.98062 5.45217,15.31067 1.90573,17.10458 -3.34899,1.694 -28.47272,4.17231 -31.86547,3.14332 z m 24.69507,-7.87784 c 0.53966,-0.46598 -0.5958,-3.43731 -2.52326,-6.603 -3.77236,-6.19573 -3.04926,-23.73051 4.66986,-113.24163 5.41089,-62.7446 8.12409,-78.74293 22.31497,-131.57868 6.3507,-23.64505 11.56099,-49.72022 11.5784,-57.94482 0.0352,-16.68785 -7.15593,-35.91587 -18.41028,-49.22526 -4.08126,-4.82651 -9.0185,-14.637907 -10.97163,-21.803082 -8.1171,-29.77842 -24.76047,-52.291786 -45.54903,-61.613919 -9.51778,-4.268016 -15.96534,-5.149575 -31.4926,-4.305903 -27.01052,1.46761 -48.95394,11.591536 -78.63811,36.280855 -22.32416,18.567768 -48.68004,47.795679 -45.56672,50.532209 0.75919,0.66733 12.58745,-9.528547 26.28497,-22.657537 29.87318,-28.633249 53.8649,-44.713276 75.76759,-50.782007 13.92895,-3.859373 18.18904,-4.033541 30.17289,-1.233559 23.9539,5.596793 43.96609,27.904584 45.9082,51.174348 l 0.65237,7.816538 -15.85654,-0.86268 -15.85655,-0.862676 1.03541,25.264623 1.03537,25.26461 11.11586,8.44321 c 10.62529,8.07054 11.11589,9.15877 11.11589,24.65854 v 16.21538 l -8.77947,-1.69493 c -4.82874,-0.93224 -11.16477,-0.47481 -14.0801,1.01651 -4.36537,2.23301 -3.35768,2.72541 5.71095,2.79067 14.75226,0.10599 17.36891,5.09002 19.36166,36.87777 1.72576,27.52845 6.43622,35.1476 7.05017,11.40353 0.20363,-7.88168 0.70399,-15.50281 1.11159,-16.93588 0.40757,-1.43302 0.90779,-7.15139 1.11158,-12.70751 l 0.37051,-10.10202 14.08011,0.88712 c 13.11212,0.82609 12.04795,0.11253 -4.44636,-2.98108 -11.09181,-2.08041 -7.4828,-6.36271 5.36237,-6.36271 7.76841,0 11.33937,-0.98488 10.07756,-2.77945 -1.07487,-1.52871 -6.76989,-2.40807 -12.65561,-1.95415 l -10.70132,0.82533 -1.055,-18.08149 c -1.13984,-19.53538 -4.34874,-27.51507 -11.0647,-27.51507 -11.08167,0 -18.77427,-34.79803 -8.46164,-38.27648 8.18855,-2.76197 14.33032,2.77671 13.82671,12.46903 -0.63273,12.17843 1.63402,17.99087 7.01619,17.99087 2.49864,0 8.90117,3.83074 14.22777,8.51278 25.01704,21.98966 20.76713,85.56481 -7.52326,112.54218 l -11.64703,11.10647 v 95.46144 c 0,81.66395 -0.62136,95.46142 -4.29906,95.46142 -2.36446,0 -5.41162,-1.74748 -6.77144,-3.88331 -1.9251,-3.02368 -3.227,-2.126 -5.88147,4.05546 -3.07247,7.15481 -2.76969,8.17346 3.06618,10.31668 5.59253,2.05381 25.34905,1.08811 28.20605,-1.37874 z m -30.06232,-70.99116 c -0.74558,-2.50782 -1.35562,-0.45595 -1.35562,4.55966 0,5.01562 0.61004,7.06748 1.35562,4.55967 0.74557,-2.50781 0.74557,-6.61152 0,-9.11933 z m -3.55179,-52.11036 c -2.92278,-42.7464 -8.74671,-83.41132 -16.32556,-113.99143 -4.96058,-20.01562 -6.12477,-31.46966 -5.02231,-49.41363 1.1998,-19.52914 0.51822,-24.86213 -4.15756,-32.53042 -3.07596,-5.04456 -5.72562,-10.94801 -5.8881,-13.11879 -0.65108,-8.69683 -5.06146,9.9688 -5.33753,22.58936 -0.30603,13.99175 2.93145,29.73912 15.70319,76.38177 7.59988,27.75483 14.68728,72.83697 18.33037,116.59694 1.10351,13.25557 2.6329,24.10104 3.3986,24.10104 0.76571,0 0.4502,-13.77668 -0.7011,-30.61484 z M 346.21936,237.94102 c -1.12827,-2.50782 -2.77944,-8.37025 -3.6692,-13.0276 -2.00712,-10.50585 -8.16392,-10.96651 -12.15256,-0.90927 -2.2891,5.77188 -1.96753,8.85149 1.36023,13.02758 5.4987,6.90049 17.49645,7.65487 14.46153,0.90929 z m 111.60133,0.2475 c 6.50265,-5.17264 6.90669,-11.14438 1.21682,-17.98407 -5.22079,-6.27586 -6.58299,-5.1066 -11.79929,10.1284 -3.7261,10.88267 -3.67353,12.16779 0.4978,12.16779 2.56512,0 7.10323,-1.94044 10.08467,-4.31212 z M 379.502,201.62183 c -2.85307,-0.65534 -7.52173,-0.65534 -10.37482,0 -2.85304,0.65536 -0.51873,1.19158 5.18743,1.19158 5.70615,0 8.04046,-0.53622 5.18739,-1.19158 z M 235.59239,177.58837 c -6.03429,-9.90713 -11.4614,-17.58613 -12.06029,-17.0644 -2.01027,1.75123 17.04462,35.07736 20.05618,35.07736 1.63652,0 -1.96161,-8.10584 -7.99589,-18.01296 z m 26.08144,12.68427 c 0,-3.12048 -29.02063,-41.57063 -31.37581,-41.57063 -1.37267,0 15.04386,27.58721 23.64484,39.73415 3.58258,5.05955 7.73097,6.04499 7.73097,1.83648 z m -1.47402,-28.26209 c -7.58222,-9.93351 -16.57088,-20.21598 -19.97481,-22.84991 -3.40392,-2.63394 0.69649,4.2448 9.11205,15.28612 8.41557,11.04131 15.30105,21.06604 15.30105,22.27717 0,3.72122 7.23319,8.92299 8.34199,5.99916 0.55305,-1.45839 -5.19806,-10.77903 -12.78028,-20.71254 z m -97.36042,2.0077 c 17.56645,-11.9124 21.15215,-16.31583 6.20227,-7.61673 -5.29856,3.08314 -13.96894,7.51915 -19.26751,9.85774 -5.29854,2.3386 -9.63375,5.20737 -9.63375,6.37496 0,4.53591 7.5063,1.6867 22.69899,-8.61597 z m 167.88345,-17.27039 c 1.07869,-19.2825 0.53367,-24.10104 -2.72597,-24.10104 -3.061,0 -4.0742,4.45454 -4.0742,17.91295 0,16.84948 3.10622,38.48164 4.71757,32.85394 0.4039,-1.41063 1.34107,-13.41027 2.0826,-26.66585 z m 135.43752,-3.90826 c 0.0379,-16.91886 -0.73561,-20.19278 -4.7715,-20.19278 -3.81399,0 -4.43112,1.69524 -2.96422,8.14225 1.01896,4.47822 1.87306,15.32371 1.89801,24.10103 0.032,11.26522 0.89053,14.80937 2.91886,12.05054 1.58041,-2.14955 2.89388,-12.99502 2.91885,-24.10104 z m -304.52929,6.31763 c 7.74406,-4.81835 14.08011,-9.2607 14.08011,-9.87189 0,-1.47099 -22.29276,8.57078 -36.42114,16.40588 -6.17387,3.42377 -10.43946,7.34251 -9.47919,8.70828 1.82355,2.59348 7.60702,-0.17692 31.82022,-15.24227 z m 325.19869,-20.8651 c 0.077,-3.73362 -1.30419,-5.66403 -3.5797,-5.00263 -2.44954,0.71196 -3.89612,7.62888 -4.26837,20.40988 l -0.56313,19.33295 4.14282,-14.33032 c 2.27851,-7.88168 4.19932,-17.06613 4.26838,-20.40988 z m -175.99292,-2.09667 c -0.85209,-1.95173 -3.07646,-3.54864 -4.94308,-3.54864 -2.35775,0 -2.77367,3.77829 -1.36242,12.37622 3.8482,23.44489 5.98567,26.53802 6.95349,10.06243 0.49564,-8.43773 0.20395,-16.93826 -0.64799,-18.89001 z M 144.58675,142.1657 c 8.15164,-4.47447 19.82329,-10.16548 25.93703,-12.64661 6.11372,-2.48118 11.11584,-4.98148 11.11584,-5.55623 0,-4.28363 -56.92842,21.92878 -58.76041,27.05597 -1.41138,3.95008 -2.21339,4.27714 21.70754,-8.85313 z m 148.24524,-8.92124 c -1.33709,-6.95654 -3.58403,-10.59764 -6.53989,-10.59764 -3.11326,0 -3.85408,1.40717 -2.40049,4.55967 1.15635,2.5078 3.45417,7.84382 5.10622,11.85784 4.16685,10.12403 6.28174,6.91388 3.83416,-5.81987 z m 213.19134,-4.73522 c 1.54925,-4.36411 0.89371,-5.86242 -2.56495,-5.86242 -2.55537,0 -4.6643,2.05185 -4.68656,4.55967 -0.0238,2.5078 -0.84138,7.49086 -1.82023,11.07343 -1.71791,6.28749 -1.62738,6.33275 2.60542,1.30278 2.41184,-2.86608 5.32169,-7.84914 6.46632,-11.07346 z"
   id="path898"
   sodipodi:nodetypes="ssssssscssssssssssssscssscccsssscssssssscsscsssscssscsssssssssscsssssssssssssssssssssssssssscccccsscssssssscssssscssssssscsssssssssssssssssssssssssssssssssssssssssssssssssssssssssssssssssssssssscssssssssssssssssssscsss" /></svg>
